<svg xmlns="http://www.w3.org/2000/svg" viewBox="0 0 1920 1080" width="1920" height="1080" font-family="'Inter','Segoe UI','Helvetica Neue',Arial,sans-serif">
<defs>
<filter id="soft" x="-20%" y="-20%" width="140%" height="140%">
  <feDropShadow dx="0" dy="3" stdDeviation="6" flood-color="#0f172a" flood-opacity="0.10"/>
</filter>
<filter id="soft2" x="-20%" y="-20%" width="140%" height="140%">
  <feDropShadow dx="0" dy="2" stdDeviation="3" flood-color="#0f172a" flood-opacity="0.10"/>
</filter>
</defs>
<rect x="0" y="0" width="1920" height="1080" fill="#f5f6f8"/><text x="56.0" y="84.0" font-size="46" fill="#0f172a" font-weight="800" text-anchor="start">CI/CD Pipeline — Python Backend</text><text x="58.0" y="122.0" font-size="21" fill="#475569" font-weight="500" text-anchor="start">GitHub Actions  ·  triggered on push / pull_request</text><rect x="1174.0" y="52.0" width="690.0" height="60.0" rx="30.0" fill="#0f172a" stroke="none" stroke-width="0" filter="url(#soft2)"/><path d="M 1209.0 80.9 v -6.2 a 7.0 7.0 0 0 1 14.1 0 v 6.2" fill="none" stroke="#fef9c3" stroke-width="3.5"/><rect x="1203.9" y="80.9" width="24.2" height="16.5" rx="3" fill="#fef9c3" stroke="none" stroke-width="0"/><circle cx="1216.0" cy="88.2" r="2.2" fill="#f5f6f8" stroke="none" stroke-width="0"/><text x="1252.0" y="89.0" font-size="20" fill="#ffffff" font-weight="600" text-anchor="start">Actions pinned to commit SHAs  ·  AWS via OIDC</text><rect x="56.0" y="276.5" width="196.0" height="559.0" rx="18" fill="#ffffff" stroke="#e2e8f0" stroke-width="1.5" filter="url(#soft)"/><path d="M 56.0 294.5 a18 18 0 0 1 18 -18 h 160.0 a18 18 0 0 1 18 18 v 40.0 h -196.0 Z" fill="#e11d48"/><circle cx="86.0" cy="305.5" r="15.0" fill="#ffffff" stroke="none" stroke-width="0"/><text x="86.0" y="311.5" font-size="18" fill="#e11d48" font-weight="800" text-anchor="middle">1</text><text x="172.5" y="311.5" font-size="16" fill="#ffffff" font-weight="800" text-anchor="middle">Security gates</text><text x="154.0" y="350.5" font-size="13" fill="#94a3b8" font-weight="600" text-anchor="middle" font-style="italic">runs in parallel</text><rect x="68.0" y="356.5" width="172.0" height="68.0" rx="12" fill="#ffe4e6" stroke="none" stroke-width="0"/><circle cx="91.0" cy="390.5" r="12.0" fill="#16a34a" stroke="none" stroke-width="0"/><path d="M 85.5 390.7 L 89.8 395.3 L 97.0 385.7" fill="none" stroke="#ffffff" stroke-width="4.1" stroke-linecap="round" stroke-linejoin="round"/><text x="111.0" y="395.5" font-size="14" fill="#be123c" font-weight="700" text-anchor="start">Secret scanning</text><rect x="68.0" y="435.5" width="172.0" height="68.0" rx="12" fill="#ffe4e6" stroke="none" stroke-width="0"/><circle cx="91.0" cy="469.5" r="12.0" fill="#16a34a" stroke="none" stroke-width="0"/><path d="M 85.5 469.7 L 89.8 474.3 L 97.0 464.7" fill="none" stroke="#ffffff" stroke-width="4.1" stroke-linecap="round" stroke-linejoin="round"/><text x="111.0" y="474.5" font-size="14" fill="#be123c" font-weight="700" text-anchor="start">SAST — Semgrep</text><rect x="68.0" y="514.5" width="172.0" height="68.0" rx="12" fill="#ffe4e6" stroke="none" stroke-width="0"/><circle cx="91.0" cy="548.5" r="12.0" fill="#16a34a" stroke="none" stroke-width="0"/><path d="M 85.5 548.7 L 89.8 553.3 L 97.0 543.7" fill="none" stroke="#ffffff" stroke-width="4.1" stroke-linecap="round" stroke-linejoin="round"/><text x="111.0" y="542.5" font-size="14" fill="#be123c" font-weight="700" text-anchor="start">Dependency CVE</text><text x="111.0" y="562.5" font-size="14" fill="#be123c" font-weight="700" text-anchor="start">audit · pip-audit</text><rect x="68.0" y="593.5" width="172.0" height="68.0" rx="12" fill="#ffe4e6" stroke="none" stroke-width="0"/><circle cx="91.0" cy="627.5" r="12.0" fill="#16a34a" stroke="none" stroke-width="0"/><path d="M 85.5 627.7 L 89.8 632.3 L 97.0 622.7" fill="none" stroke="#ffffff" stroke-width="4.1" stroke-linecap="round" stroke-linejoin="round"/><text x="111.0" y="632.5" font-size="14" fill="#be123c" font-weight="700" text-anchor="start">Lockfile check</text><rect x="68.0" y="672.5" width="172.0" height="68.0" rx="12" fill="#ffe4e6" stroke="none" stroke-width="0"/><circle cx="91.0" cy="706.5" r="12.0" fill="#16a34a" stroke="none" stroke-width="0"/><path d="M 85.5 706.7 L 89.8 711.3 L 97.0 701.7" fill="none" stroke="#ffffff" stroke-width="4.1" stroke-linecap="round" stroke-linejoin="round"/><text x="111.0" y="700.5" font-size="14" fill="#be123c" font-weight="700" text-anchor="start">Pipeline-injection</text><text x="111.0" y="720.5" font-size="14" fill="#be123c" font-weight="700" text-anchor="start">scan</text><rect x="68.0" y="751.5" width="172.0" height="68.0" rx="12" fill="#ffe4e6" stroke="none" stroke-width="0"/><circle cx="91.0" cy="785.5" r="12.0" fill="#16a34a" stroke="none" stroke-width="0"/><path d="M 85.5 785.7 L 89.8 790.3 L 97.0 780.7" fill="none" stroke="#ffffff" stroke-width="4.1" stroke-linecap="round" stroke-linejoin="round"/><text x="111.0" y="779.5" font-size="14" fill="#be123c" font-weight="700" text-anchor="start">Terraform</text><text x="111.0" y="799.5" font-size="14" fill="#be123c" font-weight="700" text-anchor="start">validate</text><rect x="282.0" y="395.0" width="196.0" height="322.0" rx="18" fill="#ffffff" stroke="#e2e8f0" stroke-width="1.5" filter="url(#soft)"/><path d="M 282.0 413.0 a18 18 0 0 1 18 -18 h 160.0 a18 18 0 0 1 18 18 v 40.0 h -196.0 Z" fill="#4f46e5"/><circle cx="312.0" cy="424.0" r="15.0" fill="#ffffff" stroke="none" stroke-width="0"/><text x="312.0" y="430.0" font-size="18" fill="#4f46e5" font-weight="800" text-anchor="middle">2</text><text x="398.5" y="430.0" font-size="16" fill="#ffffff" font-weight="800" text-anchor="middle">Code quality</text><text x="380.0" y="469.0" font-size="13" fill="#94a3b8" font-weight="600" text-anchor="middle" font-style="italic">runs in parallel</text><rect x="294.0" y="475.0" width="172.0" height="68.0" rx="12" fill="#e0e7ff" stroke="none" stroke-width="0"/><circle cx="317.0" cy="509.0" r="12.0" fill="#16a34a" stroke="none" stroke-width="0"/><path d="M 311.5 509.2 L 315.8 513.8 L 323.0 504.2" fill="none" stroke="#ffffff" stroke-width="4.1" stroke-linecap="round" stroke-linejoin="round"/><text x="337.0" y="514.0" font-size="14" fill="#4338ca" font-weight="700" text-anchor="start">Lint — Ruff</text><rect x="294.0" y="554.0" width="172.0" height="68.0" rx="12" fill="#e0e7ff" stroke="none" stroke-width="0"/><circle cx="317.0" cy="588.0" r="12.0" fill="#16a34a" stroke="none" stroke-width="0"/><path d="M 311.5 588.2 L 315.8 592.8 L 323.0 583.2" fill="none" stroke="#ffffff" stroke-width="4.1" stroke-linecap="round" stroke-linejoin="round"/><text x="337.0" y="582.0" font-size="14" fill="#4338ca" font-weight="700" text-anchor="start">Type-check</text><text x="337.0" y="602.0" font-size="14" fill="#4338ca" font-weight="700" text-anchor="start">mypy</text><rect x="294.0" y="633.0" width="172.0" height="68.0" rx="12" fill="#e0e7ff" stroke="none" stroke-width="0"/><circle cx="317.0" cy="667.0" r="12.0" fill="#16a34a" stroke="none" stroke-width="0"/><path d="M 311.5 667.2 L 315.8 671.8 L 323.0 662.2" fill="none" stroke="#ffffff" stroke-width="4.1" stroke-linecap="round" stroke-linejoin="round"/><text x="337.0" y="672.0" font-size="14" fill="#4338ca" font-weight="700" text-anchor="start">Unit tests</text><rect x="508.0" y="436.0" width="196.0" height="240.0" rx="18" fill="#ffffff" stroke="#e2e8f0" stroke-width="1.5" filter="url(#soft)"/><path d="M 508.0 454.0 a18 18 0 0 1 18 -18 h 160.0 a18 18 0 0 1 18 18 v 40.0 h -196.0 Z" fill="#0891b2"/><circle cx="538.0" cy="465.0" r="15.0" fill="#ffffff" stroke="none" stroke-width="0"/><text x="538.0" y="471.0" font-size="18" fill="#0891b2" font-weight="800" text-anchor="middle">3</text><text x="624.5" y="462.0" font-size="16" fill="#ffffff" font-weight="800" text-anchor="middle">Integration</text><text x="624.5" y="482.0" font-size="16" fill="#ffffff" font-weight="800" text-anchor="middle">tests</text><circle cx="606.0" cy="550.0" r="28.0" fill="#16a34a" stroke="none" stroke-width="0"/><path d="M 593.1 550.6 L 603.2 561.2 L 620.0 538.8" fill="none" stroke="#ffffff" stroke-width="9.5" stroke-linecap="round" stroke-linejoin="round"/><text x="606.0" y="610.0" font-size="16" fill="#475569" font-weight="600" text-anchor="middle">Postgres + Redis</text><text x="606.0" y="633.0" font-size="16" fill="#475569" font-weight="600" text-anchor="middle">services</text><rect x="734.0" y="436.0" width="196.0" height="240.0" rx="18" fill="#ffffff" stroke="#e2e8f0" stroke-width="1.5" filter="url(#soft)"/><path d="M 734.0 454.0 a18 18 0 0 1 18 -18 h 160.0 a18 18 0 0 1 18 18 v 40.0 h -196.0 Z" fill="#7c3aed"/><circle cx="764.0" cy="465.0" r="15.0" fill="#ffffff" stroke="none" stroke-width="0"/><text x="764.0" y="471.0" font-size="18" fill="#7c3aed" font-weight="800" text-anchor="middle">4</text><text x="850.5" y="471.0" font-size="20" fill="#ffffff" font-weight="800" text-anchor="middle">Coverage</text><circle cx="832.0" cy="550.0" r="28.0" fill="#16a34a" stroke="none" stroke-width="0"/><path d="M 819.1 550.6 L 829.2 561.2 L 846.0 538.8" fill="none" stroke="#ffffff" stroke-width="9.5" stroke-linecap="round" stroke-linejoin="round"/><text x="832.0" y="610.0" font-size="16" fill="#475569" font-weight="600" text-anchor="middle">combined</text><text x="832.0" y="633.0" font-size="16" fill="#475569" font-weight="600" text-anchor="middle">fail-under 65%</text><rect x="960.0" y="436.0" width="196.0" height="240.0" rx="18" fill="#ffffff" stroke="#e2e8f0" stroke-width="1.5" filter="url(#soft)"/><path d="M 960.0 454.0 a18 18 0 0 1 18 -18 h 160.0 a18 18 0 0 1 18 18 v 40.0 h -196.0 Z" fill="#d97706"/><circle cx="990.0" cy="465.0" r="15.0" fill="#ffffff" stroke="none" stroke-width="0"/><text x="990.0" y="471.0" font-size="18" fill="#d97706" font-weight="800" text-anchor="middle">5</text><text x="1076.5" y="471.0" font-size="20" fill="#ffffff" font-weight="800" text-anchor="middle">E2E</text><circle cx="1058.0" cy="550.0" r="28.0" fill="#16a34a" stroke="none" stroke-width="0"/><path d="M 1045.1 550.6 L 1055.2 561.2 L 1072.0 538.8" fill="none" stroke="#ffffff" stroke-width="9.5" stroke-linecap="round" stroke-linejoin="round"/><text x="1058.0" y="610.0" font-size="16" fill="#475569" font-weight="600" text-anchor="middle">Postman /</text><text x="1058.0" y="633.0" font-size="16" fill="#475569" font-weight="600" text-anchor="middle">Newman</text><rect x="1186.0" y="436.0" width="196.0" height="240.0" rx="18" fill="#ffffff" stroke="#e2e8f0" stroke-width="1.5" filter="url(#soft)"/><path d="M 1186.0 454.0 a18 18 0 0 1 18 -18 h 160.0 a18 18 0 0 1 18 18 v 40.0 h -196.0 Z" fill="#475569"/><circle cx="1216.0" cy="465.0" r="15.0" fill="#ffffff" stroke="none" stroke-width="0"/><text x="1216.0" y="471.0" font-size="18" fill="#475569" font-weight="800" text-anchor="middle">6</text><text x="1302.5" y="471.0" font-size="20" fill="#ffffff" font-weight="800" text-anchor="middle">Build</text><circle cx="1284.0" cy="550.0" r="28.0" fill="#16a34a" stroke="none" stroke-width="0"/><path d="M 1271.1 550.6 L 1281.2 561.2 L 1298.0 538.8" fill="none" stroke="#ffffff" stroke-width="9.5" stroke-linecap="round" stroke-linejoin="round"/><text x="1284.0" y="610.0" font-size="16" fill="#475569" font-weight="600" text-anchor="middle">multi-stage Docker</text><text x="1284.0" y="633.0" font-size="16" fill="#475569" font-weight="600" text-anchor="middle">distroless</text><rect x="1412.0" y="436.0" width="196.0" height="240.0" rx="18" fill="#ffffff" stroke="#e2e8f0" stroke-width="1.5" filter="url(#soft)"/><path d="M 1412.0 454.0 a18 18 0 0 1 18 -18 h 160.0 a18 18 0 0 1 18 18 v 40.0 h -196.0 Z" fill="#db2777"/><circle cx="1442.0" cy="465.0" r="15.0" fill="#ffffff" stroke="none" stroke-width="0"/><text x="1442.0" y="471.0" font-size="18" fill="#db2777" font-weight="800" text-anchor="middle">7</text><text x="1528.5" y="471.0" font-size="20" fill="#ffffff" font-weight="800" text-anchor="middle">Image scan</text><circle cx="1510.0" cy="550.0" r="28.0" fill="#16a34a" stroke="none" stroke-width="0"/><path d="M 1497.1 550.6 L 1507.2 561.2 L 1524.0 538.8" fill="none" stroke="#ffffff" stroke-width="9.5" stroke-linecap="round" stroke-linejoin="round"/><text x="1510.0" y="610.0" font-size="16" fill="#475569" font-weight="600" text-anchor="middle">Trivy CVE</text><rect x="1638.0" y="436.0" width="196.0" height="240.0" rx="18" fill="#ffffff" stroke="#e2e8f0" stroke-width="1.5" filter="url(#soft)"/><path d="M 1638.0 454.0 a18 18 0 0 1 18 -18 h 160.0 a18 18 0 0 1 18 18 v 40.0 h -196.0 Z" fill="#16a34a"/><circle cx="1668.0" cy="465.0" r="15.0" fill="#ffffff" stroke="none" stroke-width="0"/><text x="1668.0" y="471.0" font-size="18" fill="#16a34a" font-weight="800" text-anchor="middle">8</text><text x="1754.5" y="471.0" font-size="20" fill="#ffffff" font-weight="800" text-anchor="middle">Deploy</text><circle cx="1736.0" cy="550.0" r="28.0" fill="#16a34a" stroke="none" stroke-width="0"/><path d="M 1723.1 550.6 L 1733.2 561.2 L 1750.0 538.8" fill="none" stroke="#ffffff" stroke-width="9.5" stroke-linecap="round" stroke-linejoin="round"/><text x="1736.0" y="610.0" font-size="16" fill="#475569" font-weight="600" text-anchor="middle">ECS service</text><rect x="1666.0" y="632.0" width="140.0" height="26.0" rx="13.0" fill="#dcfce7" stroke="none" stroke-width="0"/><text x="1736.0" y="649.2" font-size="12" fill="#15803d" font-weight="700" text-anchor="middle" letter-spacing="0.3">main branch only</text><line x1="254.0" y1="556.0" x2="266.5" y2="556.0" stroke="#cbd5e1" stroke-width="4" stroke-linecap="round"/><path d="M 280.0 556.0 L 265.0 564.2 L 265.0 547.8 Z" fill="#cbd5e1"/><line x1="480.0" y1="556.0" x2="492.5" y2="556.0" stroke="#cbd5e1" stroke-width="4" stroke-linecap="round"/><path d="M 506.0 556.0 L 491.0 564.2 L 491.0 547.8 Z" fill="#cbd5e1"/><line x1="706.0" y1="556.0" x2="718.5" y2="556.0" stroke="#cbd5e1" stroke-width="4" stroke-linecap="round"/><path d="M 732.0 556.0 L 717.0 564.2 L 717.0 547.8 Z" fill="#cbd5e1"/><line x1="932.0" y1="556.0" x2="944.5" y2="556.0" stroke="#cbd5e1" stroke-width="4" stroke-linecap="round"/><path d="M 958.0 556.0 L 943.0 564.2 L 943.0 547.8 Z" fill="#cbd5e1"/><line x1="1158.0" y1="556.0" x2="1170.5" y2="556.0" stroke="#cbd5e1" stroke-width="4" stroke-linecap="round"/><path d="M 1184.0 556.0 L 1169.0 564.2 L 1169.0 547.8 Z" fill="#cbd5e1"/><line x1="1384.0" y1="556.0" x2="1396.5" y2="556.0" stroke="#cbd5e1" stroke-width="4" stroke-linecap="round"/><path d="M 1410.0 556.0 L 1395.0 564.2 L 1395.0 547.8 Z" fill="#cbd5e1"/><line x1="1610.0" y1="556.0" x2="1622.5" y2="556.0" stroke="#cbd5e1" stroke-width="4" stroke-linecap="round"/><path d="M 1636.0 556.0 L 1621.0 564.2 L 1621.0 547.8 Z" fill="#cbd5e1"/><text x="56.0" y="1040.0" font-size="18" fill="#94a3b8" font-weight="500" text-anchor="start">Green check = required gate passed   ·   all 8 stages must succeed before deploy</text></svg>
